# xmcd CD database file
#
# Track frame offsets:
#	150
#	15350
#	37737
#	61532
#	81752
#	100247
#	118747
#	134370
#	154632
#
# Disc length: 2403 seconds
#
# Revision: 1
# Processed by: cddbd v1.5.2PL0 Copyright (c) Steve Scherf et al.
# Submitted via: CDex 1.70beta3
#
DISCID=5d096109
DTITLE=Boøwy - Instant Love
DYEAR=1983
DGENRE=Rock
TTITLE0=Instant Love
TTITLE1=My Honey
TTITLE2=Oh! My Jully part II
TTITLE3=Funny-Boy
TTITLE4=Oh! My Jully part I
TTITLE5=Teenage Emotion
TTITLE6=London Game
TTITLE7=Symphonic
TTITLE8=THis Moment
EXTD=YEAR: 1983
EXTT0=
EXTT1=
EXTT2=
EXTT3=
EXTT4=
EXTT5=
EXTT6=
EXTT7=
EXTT8=
PLAYORDER=
